<svg xmlns="http://www.w3.org/2000/svg" width="450" height="240.03" viewBox="0 0 450 240.03">
  <metadata><?xpacket begin="﻿" id="W5M0MpCehiHzreSzNTczkc9d"?>
<x:xmpmeta xmlns:x="adobe:ns:meta/" x:xmptk="Adobe XMP Core 5.6-c140 79.160451, 2017/05/06-01:08:21        ">
   <rdf:RDF xmlns:rdf="http://www.w3.org/1999/02/22-rdf-syntax-ns#">
      <rdf:Description rdf:about=""/>
   </rdf:RDF>
</x:xmpmeta>
                                                                                                    
                                                                                                    
                                                                                                    
                                                                                                    
                                                                                                    
                                                                                                    
                                                                                                    
                                                                                                    
                                                                                                    
                                                                                                    
                                                                                                    
                                                                                                    
                                                                                                    
                                                                                                    
                                                                                                    
                                                                                                    
                                                                                                    
                                                                                                    
                                                                                                    
                                                                                                    
                           
<?xpacket end="w"?></metadata>
<defs>
    <style>
      .cls-1 {
        fill: #fff;
        fill-rule: evenodd;
      }
    </style>
  </defs>
  <path id="icon_bracelet_copie_3" data-name="icon bracelet copie 3" class="cls-1" d="M7452.51,3227.25c59.05,0.44,115.12-7.49,157.89-22.36,37.39-12.99,60.86-30.18,65.59-47.74l-0.68-75.71c-7.75,17.37-29.69,31.98-64.73,42.76-40.31,12.4-97.15,19.31-160.06,19.45-39.7.1-76.98-2.51-109.2-7.52a376.621,376.621,0,0,1-50.73-11.17c-33.91-10.28-55.59-24.22-64-40.87l0.79,66.12a2.592,2.592,0,0,1,.46,1.39C7227.97,3193.08,7326.66,3226.32,7452.51,3227.25Zm222.65-162.92v0.02h0v-0.02Zm-222.68,168.09a655.551,655.551,0,0,1-94.9-7.28c-66.6-10.36-114.87-30.93-129.93-56.45,1.57,42.29,102.29,73.37,225,73.08,120.74-.29,218.87-30.86,223.22-72.14C7651.64,3206.2,7559.52,3233.22,7452.48,3232.42Zm222.68-168.07a3.19,3.19,0,0,0-.33.11c0.11,0.61.13,1.23,0.19,1.84C7675.06,3065.65,7675.16,3065.01,7675.16,3064.35Zm-448.79,1.05v0.21a0.01,0.01,0,0,1,.01.01C7226.38,3065.55,7226.37,3065.48,7226.37,3065.4Zm448.8,2.63c0-.58-0.1-1.15-0.15-1.73-0.06-.61-0.08-1.23-0.19-1.84-6.33-35.22-104.42-62.99-224.42-62.71-120.05.29-218.02,28.55-224.1,63.82a19.953,19.953,0,0,0-.3,3.53,20.211,20.211,0,0,0,.45,4.02c0.98,4.84,3.72,9.55,8,14.05,11.56,15.82,36.11,26.33,57.63,32.85,39.78,12.06,96.04,18.62,158.42,18.47,62.41-.14,118.72-6.97,158.56-19.23,21.36-6.57,45.7-17.07,57.35-32.7C7672.09,3080.67,7675.19,3074.46,7675.17,3068.03Zm-448.8-2.63c0,0.08.01,0.15,0.01,0.22a0.01,0.01,0,0,0-.01-0.01v-0.21Zm336.7,44.73c-0.49-.3-6.56-4.01-14.52-9.04-4.6-2.91-9.28-2.74-15.16-2.36-3.73.24-51.86,2.49-83.07,2.5-24.51,0-74.43-2.39-82.47-2.66s-11.29,2.18-14.56,4.21c-5,3.1-12.88,8.03-12.88,8.03l-0.26.13c-56.2-8.57-93.45-24.2-93.51-44.69-0.09-32.12,91.15-55.18,203.79-55.45s204.01,22.36,204.1,54.47C7654.58,3085.55,7618.22,3101.24,7563.07,3110.13Zm-195.53-52.44a4.371,4.371,0,1,0-3.65-4.99A4.369,4.369,0,0,0,7367.54,3057.69Zm32.13-2.93a4.372,4.372,0,1,0-3.65-4.99A4.362,4.362,0,0,0,7399.67,3054.76Zm31.93-1.6a4.372,4.372,0,1,0-3.65-4.99A4.362,4.362,0,0,0,7431.6,3053.16Zm31.68,0.02a4.371,4.371,0,1,0-3.65-4.99A4.362,4.362,0,0,0,7463.28,3053.18Zm31.54,0.91a4.377,4.377,0,1,0-3.65-5A4.369,4.369,0,0,0,7494.82,3054.09Zm31.29,2.5a4.372,4.372,0,1,0-3.64-4.99A4.374,4.374,0,0,0,7526.11,3056.59Zm31.08,3.92a4.372,4.372,0,1,0-3.65-4.99A4.362,4.362,0,0,0,7557.19,3060.51Z" transform="translate(-7226 -3001.75)"/>
</svg>
