<svg xmlns="http://www.w3.org/2000/svg" width="219" height="116" viewBox="0 0 219 116">
  <metadata><?xpacket begin="﻿" id="W5M0MpCehiHzreSzNTczkc9d"?>
<x:xmpmeta xmlns:x="adobe:ns:meta/" x:xmptk="Adobe XMP Core 5.6-c140 79.160451, 2017/05/06-01:08:21        ">
   <rdf:RDF xmlns:rdf="http://www.w3.org/1999/02/22-rdf-syntax-ns#">
      <rdf:Description rdf:about=""/>
   </rdf:RDF>
</x:xmpmeta>
                                                                                                    
                                                                                                    
                                                                                                    
                                                                                                    
                                                                                                    
                                                                                                    
                                                                                                    
                                                                                                    
                                                                                                    
                                                                                                    
                                                                                                    
                                                                                                    
                                                                                                    
                                                                                                    
                                                                                                    
                                                                                                    
                                                                                                    
                                                                                                    
                                                                                                    
                                                                                                    
                           
<?xpacket end="w"?></metadata>
<defs>
    <style>
      .cls-1 {
        fill: #252525;
        fill-rule: evenodd;
      }
    </style>
  </defs>
  <path id="icon_bracelet_copie_4" data-name="icon bracelet copie 4" class="cls-1" d="M8858.24,4896.98c28.73,0.21,56.02-3.62,76.84-10.81,18.19-6.28,29.61-14.59,31.92-23.07l-0.34-36.59c-3.77,8.4-14.45,15.46-31.5,20.66-19.61,6-47.28,9.34-77.89,9.41a349.686,349.686,0,0,1-53.15-3.64,182.911,182.911,0,0,1-24.69-5.4c-16.5-4.96-27.05-11.7-31.14-19.75l0.38,31.96a1.192,1.192,0,0,1,.22.67C8748.96,4880.46,8796.99,4896.53,8858.24,4896.98Zm108.35-78.74v0.01h0v-0.01Zm-108.37,81.23a320.7,320.7,0,0,1-46.19-3.51c-32.41-5.01-55.9-14.95-63.22-27.28,0.75,20.43,49.77,35.46,109.49,35.31,58.76-.14,106.52-14.91,108.64-34.86C8955.14,4886.8,8910.31,4899.86,8858.22,4899.47Zm108.37-81.22a0.758,0.758,0,0,0-.16.06c0.05,0.29.06,0.59,0.09,0.89C8966.54,4818.88,8966.59,4818.57,8966.59,4818.25Zm-218.41.51v0.1h0.01A0.308,0.308,0,0,1,8748.18,4818.76Zm218.41,1.27a7.53,7.53,0,0,0-.07-0.83c-0.03-.3-0.04-0.6-0.09-0.89-3.08-17.03-50.82-30.45-109.22-30.31-58.42.14-106.1,13.8-109.06,30.84a9.878,9.878,0,0,0-.15,1.71,10.58,10.58,0,0,0,.22,1.94,14.072,14.072,0,0,0,3.9,6.79c5.62,7.65,17.57,12.72,28.04,15.88,19.36,5.83,46.74,9,77.1,8.92s57.78-3.37,77.17-9.29c10.4-3.18,22.24-8.25,27.91-15.8C8965.1,4826.14,8966.6,4823.14,8966.59,4820.03Zm-218.41-1.27a0.308,0.308,0,0,0,.01.1h-0.01v-0.1Zm163.86,21.62c-0.24-.15-3.19-1.94-7.07-4.37-2.23-1.41-4.51-1.33-7.37-1.14-1.82.11-25.24,1.2-40.43,1.2-11.93.01-36.22-1.15-40.14-1.28a10.48,10.48,0,0,0-7.08,2.03c-2.44,1.5-6.27,3.89-6.27,3.89l-0.13.06c-27.35-4.14-45.48-11.7-45.51-21.6-0.04-15.52,44.37-26.67,99.18-26.8s99.29,10.81,99.33,26.33C8956.58,4828.5,8938.88,4836.08,8912.04,4840.38Zm-95.16-25.35a2.11,2.11,0,1,0-1.77-2.41A2.116,2.116,0,0,0,8816.88,4815.03Zm15.64-1.41a2.115,2.115,0,1,0-1.78-2.41A2.116,2.116,0,0,0,8832.52,4813.62Zm15.54-.77a2.115,2.115,0,1,0-1.78-2.42A2.124,2.124,0,0,0,8848.06,4812.85Zm15.41,0a2.111,2.111,0,1,0-1.77-2.41A2.126,2.126,0,0,0,8863.47,4812.85Zm15.35,0.44a2.111,2.111,0,1,0-1.77-2.41A2.126,2.126,0,0,0,8878.82,4813.29Zm15.23,1.21a2.11,2.11,0,1,0-1.77-2.41A2.126,2.126,0,0,0,8894.05,4814.5Zm15.13,1.9a2.115,2.115,0,1,0-1.78-2.41A2.116,2.116,0,0,0,8909.18,4816.4Z" transform="translate(-8748 -4788)"/>
</svg>
