<svg xmlns="http://www.w3.org/2000/svg" width="48" height="33" viewBox="0 0 48 33">
  <metadata><?xpacket begin="﻿" id="W5M0MpCehiHzreSzNTczkc9d"?>
<x:xmpmeta xmlns:x="adobe:ns:meta/" x:xmptk="Adobe XMP Core 5.6-c140 79.160451, 2017/05/06-01:08:21        ">
   <rdf:RDF xmlns:rdf="http://www.w3.org/1999/02/22-rdf-syntax-ns#">
      <rdf:Description rdf:about=""/>
   </rdf:RDF>
</x:xmpmeta>
                                                                                                    
                                                                                                    
                                                                                                    
                                                                                                    
                                                                                                    
                                                                                                    
                                                                                                    
                                                                                                    
                                                                                                    
                                                                                                    
                                                                                                    
                                                                                                    
                                                                                                    
                                                                                                    
                                                                                                    
                                                                                                    
                                                                                                    
                                                                                                    
                                                                                                    
                                                                                                    
                           
<?xpacket end="w"?></metadata>
<defs>
    <style>
      .cls-1 {
        fill: #fff;
        fill-rule: evenodd;
      }
    </style>
  </defs>
  <path id="icon-CB" class="cls-1" d="M1695.19,2731.01h40.67a5.611,5.611,0,0,1,1.09.02,4.607,4.607,0,0,1,1.92.99,3.62,3.62,0,0,1,1.1,2.19v25.77a4.792,4.792,0,0,1-.03,1.01,4.35,4.35,0,0,1-.68,1.56,3.629,3.629,0,0,1-1.56,1.21,3.415,3.415,0,0,0-.68.25h-42.08c-0.26-.14-0.61-0.23-0.9-0.35a3.576,3.576,0,0,1-1.7-1.69c-0.12-.28-0.21-0.63-0.35-0.89v-27.15c0.14-.26.23-0.61,0.35-0.89a3.52,3.52,0,0,1,1.95-1.8C1694.59,2731.16,1694.89,2731.08,1695.19,2731.01Zm6.19,7.32a0.879,0.879,0,0,0-.1.06,9.831,9.831,0,0,0,.05,1.76c1.18,0,2.37.01,3.55,0.01,0.4,0,.8-0.01,1.2-0.01,0.01-.01.03-0.02,0.04-0.03s-0.01-.03-0.01-0.04a2.3,2.3,0,0,0-.6-0.71C1704.38,2738.35,1703.5,2738.33,1701.38,2738.33Zm-2.45.03a2.137,2.137,0,0,1-.48.1c-0.22.08-.44,0.15-0.66,0.23a3.67,3.67,0,0,0-1.76,1.76,7.886,7.886,0,0,0-.34,2.9c0,0.91.01,1.83,0.01,2.74a3.808,3.808,0,0,0,3.27,3.23,0.8,0.8,0,0,0,.45-0.04c0.01-.81.01-1.62,0.02-2.44-0.01-2.81-.01-5.63-0.02-8.45-0.01-.01-0.03-0.01-0.04-0.02C1699.23,2738.37,1699.08,2738.37,1698.93,2738.36Zm23.91,0c-0.21.03-.42,0.07-0.63,0.1l-0.84.24a5.842,5.842,0,0,0-2.71,2.25,5.267,5.267,0,0,0-.6,1.29,5.541,5.541,0,0,0,3.34,6.74,5.887,5.887,0,0,0,4.2-.13c0.28-.15.56-0.31,0.83-0.47a1.459,1.459,0,0,1,.67-0.44c0.2,0.16.41,0.32,0.61,0.47a7.374,7.374,0,0,0,1.8.79,5.65,5.65,0,0,0,3.08-.21c2.1-.73,3.23-2.29,3.67-4.69a5.045,5.045,0,0,0-.43-2.54,5.248,5.248,0,0,0-3.67-3.21,5.4,5.4,0,0,0-2.25-.12,6.146,6.146,0,0,0-1.14.27,6.311,6.311,0,0,0-1.64,1.02,7.034,7.034,0,0,1-1.29-.78A5.831,5.831,0,0,0,1722.84,2738.36Zm-21.49,3.64a0.55,0.55,0,0,0-.07.09v1.68a0.435,0.435,0,0,0,.07.06h3.82a8.1,8.1,0,0,0,1.57-.02v-1.78a0.227,0.227,0,0,0-.04-0.01C1704.92,2742.01,1703.13,2742.01,1701.35,2742Zm0.03,3.69-0.09.06c0,1.17-.01,2.34-0.01,3.52a0.435,0.435,0,0,0,.07.06c0.71,0,1.42-.01,2.13-0.01a3.818,3.818,0,0,0,2.71-1.76,4.039,4.039,0,0,0,.5-1.29,0.742,0.742,0,0,0-.01-0.55,8.111,8.111,0,0,0-1.5-.03h-3.8Zm-5.65,7.31a2.582,2.582,0,0,0-.04.9v1.94a3.1,3.1,0,0,0,.02.82c1.61,0.01,3.21.01,4.81,0.02h1.71a3.661,3.661,0,0,0,.82-0.03c0-.01.01-0.02,0.01-0.03v-2.58a2.95,2.95,0,0,0-.04-1.04h-7.29Zm11.07,0a2.582,2.582,0,0,0-.04.9v1.94a2.7,2.7,0,0,0,.03.82c1.85,0.01,3.71.01,5.57,0.02a9.636,9.636,0,0,0,1.76-.06c0-.9.01-1.8,0.01-2.71a2.462,2.462,0,0,0-.04-0.91h-7.29Zm11.07,0c-0.01.02-.03,0.04-0.04,0.06,0,1.2.01,2.39,0.01,3.59a8.938,8.938,0,0,0,1.73.03h3.89a9.3,9.3,0,0,0,1.73-.06c0-.9.01-1.8,0.01-2.71a2.462,2.462,0,0,0-.04-0.91h-7.29Zm11.07,0c-0.01.02-.03,0.04-0.04,0.06,0,1.2.01,2.39,0.01,3.59a8.543,8.543,0,0,0,1.69.03h3.82a9.2,9.2,0,0,0,1.85-.05v-2.61a3.044,3.044,0,0,0-.04-1.02h-7.29Z" transform="translate(-1692 -2731)"/>
</svg>
