<svg xmlns="http://www.w3.org/2000/svg" width="52" height="52" viewBox="0 0 52 52">
  <metadata><?xpacket begin="﻿" id="W5M0MpCehiHzreSzNTczkc9d"?>
<x:xmpmeta xmlns:x="adobe:ns:meta/" x:xmptk="Adobe XMP Core 5.6-c140 79.160451, 2017/05/06-01:08:21        ">
   <rdf:RDF xmlns:rdf="http://www.w3.org/1999/02/22-rdf-syntax-ns#">
      <rdf:Description rdf:about=""/>
   </rdf:RDF>
</x:xmpmeta>
                                                                                                    
                                                                                                    
                                                                                                    
                                                                                                    
                                                                                                    
                                                                                                    
                                                                                                    
                                                                                                    
                                                                                                    
                                                                                                    
                                                                                                    
                                                                                                    
                                                                                                    
                                                                                                    
                                                                                                    
                                                                                                    
                                                                                                    
                                                                                                    
                                                                                                    
                                                                                                    
                           
<?xpacket end="w"?></metadata>
<defs>
    <style>
      .cls-1 {
        fill: #f8f7f6;
        fill-rule: evenodd;
      }
    </style>
  </defs>
  <path id="icon-write" class="cls-1" d="M1728.72,2799c3.77-.06,5.3,2.48,7.17,4.36,1.15,1.15,2.37,2.11,2.92,3.88a5.643,5.643,0,0,1,.19,1.67c0,2.39-1.14,3.51-2.33,4.7a6.086,6.086,0,0,1-1.43,1.32q-4.515-4.515-9.03-9.04c-0.77-.76-1.54-1.53-2.31-2.3a2.333,2.333,0,0,1-.82-0.92c1.02-1.05,2.21-2.53,3.61-3.15l1.17-.39C1728.15,2799.08,1728.44,2799.04,1728.72,2799Zm-9.89,7.92a0.59,0.59,0,0,0,.14.02c1.13,1.12,2.25,2.24,3.38,3.36q3.03,3.015,6.06,6.05l1.91,1.91a3.926,3.926,0,0,1,.79.84,1.921,1.921,0,0,1-.65.71c-0.55.55-1.1,1.1-1.65,1.66q-3.075,3.06-6.15,6.14-9.06,9.06-18.13,18.13-3.135,1.08-6.27,2.18c-2.15.75-4.29,1.5-6.44,2.26a17.245,17.245,0,0,1-2.37.82,2.041,2.041,0,0,1-.73-0.67c-0.58-.58-1.17-1.13-1.72-1.72a2.15,2.15,0,0,1,.25-0.8c0.28-.8.56-1.59,0.84-2.39,0.97-2.47,1.65-5.06,2.64-7.5,0.51-1.47,1.02-2.95,1.53-4.42a7.181,7.181,0,0,1,.78-0.78c0.72-.89,1.72-1.56,2.45-2.45,0.88-1.07,2.08-1.89,2.96-2.96a14.855,14.855,0,0,1,1.86-1.86c0.68-.57,1.22-1.31,1.89-1.89Q1710.51,2815.25,1718.83,2806.92Zm-25.86,29.8a10.374,10.374,0,0,0-.54,1.51l-1.2,3.42a9.894,9.894,0,0,0-.77,2.26,4.455,4.455,0,0,0,.84.84c0.65,0.59,1.27,1.26,1.88,1.89a2.144,2.144,0,0,0,1.07.9l5.28-1.89a5.724,5.724,0,0,0,1.77-.71q-4.11-4.11-8.2-8.22h-0.13Z" transform="translate(-1687 -2799)"/>
</svg>
